<svg viewBox="0 0 143 143" fill="none" xmlns="http://www.w3.org/2000/svg">
        <path
          d="M43.5079 142.205L92.1779 109.849C95.1382 107.374 97.3719 104.606 97.7351 100.604V17.7556C93.2136 -1.7689 65.9841 -3.9203 51.5925 5.98076L0.73513 39.9559V127.415L55.086 91.0111C63.5262 85.9141 74.4706 84.5029 83.475 89.0294C89.4882 92.0521 95.4551 98.969 88.8003 104.783L43.5156 135.234V142.205H43.5079ZM64.2605 92.3451L16.402 124.246V131.641C28.3666 123.652 40.3776 115.71 52.3036 107.667C53.2543 107.027 54.1354 106.441 55.0783 105.809C56.3072 104.976 64.2605 99.8866 64.2605 99.3237V92.3451ZM77.8096 97.8432C76.457 98.0437 75.2358 99.1232 74.1151 99.8635C59.3061 109.68 44.6672 119.781 29.9511 129.744V136.715C33.4755 135.111 36.7449 132.636 39.9989 130.469C52.6668 122.025 65.2807 113.466 77.8096 104.814V97.8432Z"
          fill="#F16267"
        />
      </svg>